# xmcd
#
# Track frame offsets:
#	150
#	19715
#	33382
#	52830
#	73297
#	88885
#	104872
#	124040
#	146075
#	165605
#	179262
#	198697
#	219109
#	234670
#	250555
#	269722
#	303172
#
# Disc length: 4054 seconds
#
# Revision: 1
# Processed by: cddbd v1.5.2PL0 Copyright (c) Steve Scherf et al.
# Submitted via: audiograbber 1.83.01
#
DISCID=f90fd411
DTITLE=SC2168 - Sound Choice SC2168 Leann Rimes vol 2
DYEAR=1900
DGENRE=Karaoke
TTITLE0=LeAnn Rimes - Looking Through Your Eyes
TTITLE1=LeAnn Rimes - Clinging To A Saving Hand
TTITLE2=LeAnn Rimes - On The Side Of Angels
TTITLE3=LeAnn Rimes - Commitment
TTITLE4=LeAnn Rimes - God Bless America
TTITLE5=LeAnn Rimes - I'll Get Even With You
TTITLE6=LeAnn Rimes - Ten Thousand Angels Cried
TTITLE7=LeAnn Rimes - I Know Who Holds Tomorrow
TTITLE8=LeAnn Rimes - Looking Through Your Eyes (vocals)
TTITLE9=LeAnn Rimes - Clinging To A Saving Hand (vocals)
TTITLE10=LeAnn Rimes - On The Side Of Angels (vocals)
TTITLE11=LeAnn Rimes - Commitment (vocals)
TTITLE12=LeAnn Rimes - God Bless America (vocals)
TTITLE13=LeAnn Rimes - I'll Get Even With You (vocals)
TTITLE14=LeAnn Rimes - Ten Thousand Angels Cried (vocals)
TTITLE15=LeAnn Rimes - I Know Who Holds Tomorrow (vocals)
TTITLE16=Dackata T - Data Track
EXTD=
EXTT0=
EXTT1=
EXTT2=
EXTT3=
EXTT4=
EXTT5=
EXTT6=
EXTT7=
EXTT8=
EXTT9=
EXTT10=
EXTT11=
EXTT12=
EXTT13=
EXTT14=
EXTT15=
EXTT16=
PLAYORDER=
